# Blender v3.1.2 OBJ File: ''
# www.blender.org
mtllib lowpoly_toy_car.mtl
o lowpoly_toy_car
v -0.057128 0.831026 -0.015865
v 0.188319 0.831026 -0.015865
v 0.188319 0.831026 0.733569
v -0.057128 0.831026 0.733569
v 0.188319 1.068292 0.733570
v 0.188319 1.068292 -0.015865
v -0.057128 1.068292 -0.015865
v -0.057128 1.068292 0.733570
v 1.443376 0.831026 0.733569
v 1.443376 0.831026 -0.015865
v 1.443376 1.068292 -0.015865
v 1.443376 1.068292 0.733570
v 1.197928 0.831026 -0.015865
v 1.197928 1.068292 -0.015865
v 1.197928 0.831026 0.733569
v 1.197928 1.068292 0.733570
v 0.487766 1.447100 0.658299
v 0.898482 1.447100 0.658299
v 0.898482 1.447100 0.059406
v 0.487766 1.447100 0.059406
v 1.202837 0.674758 0.022589
v 1.141475 0.658394 0.022589
v 1.079295 0.674758 0.022589
v 1.034296 0.720575 0.022589
v 1.017933 0.781936 0.022589
v 1.034296 0.843298 0.022589
v 1.079295 0.889115 0.022589
v 1.141475 0.905479 0.022589
v 1.202837 0.889115 0.022589
v 1.247836 0.843298 0.022589
v 1.264199 0.781936 0.022589
v 1.247836 0.720575 0.022589
v 1.247836 0.843298 0.133040
v 1.264199 0.781936 0.133040
v 1.202837 0.889115 0.133040
v 1.141475 0.905479 0.133040
v 1.079295 0.889115 0.133040
v 1.034296 0.843298 0.133040
v 1.017933 0.781936 0.133040
v 1.034296 0.720574 0.133040
v 1.079295 0.674758 0.133040
v 1.141475 0.658394 0.133040
v 1.202837 0.674758 0.133040
v 1.247836 0.720574 0.133040
v 1.202837 0.674757 0.573210
v 1.141475 0.658394 0.573210
v 1.079295 0.674757 0.573210
v 1.034296 0.720574 0.573210
v 1.017933 0.781936 0.573210
v 1.034296 0.843298 0.573210
v 1.079295 0.889115 0.573210
v 1.141475 0.905478 0.573210
v 1.202837 0.889115 0.573210
v 1.247836 0.843298 0.573210
v 1.264199 0.781936 0.573210
v 1.247836 0.720574 0.573210
v 1.247836 0.843298 0.682844
v 1.264199 0.781936 0.682844
v 1.202837 0.889115 0.682844
v 1.141475 0.905478 0.682844
v 1.079295 0.889115 0.682844
v 1.034296 0.843298 0.682844
v 1.017933 0.781936 0.682844
v 1.034296 0.720574 0.682844
v 1.079295 0.674757 0.682844
v 1.141475 0.658394 0.682844
v 1.202837 0.674757 0.682844
v 1.247836 0.720574 0.682844
v 0.297953 0.674758 0.022589
v 0.235773 0.658394 0.022589
v 0.174411 0.674758 0.022589
v 0.128594 0.720575 0.022589
v 0.112231 0.781936 0.022589
v 0.128594 0.843298 0.022589
v 0.174411 0.889115 0.022589
v 0.235773 0.905479 0.022589
v 0.297953 0.889115 0.022589
v 0.342952 0.843298 0.022589
v 0.359315 0.781936 0.022589
v 0.342952 0.720575 0.022589
v 0.342952 0.843298 0.133040
v 0.359315 0.781936 0.133040
v 0.297953 0.889115 0.133040
v 0.235773 0.905479 0.133040
v 0.174411 0.889115 0.133040
v 0.128594 0.843298 0.133040
v 0.112231 0.781936 0.133040
v 0.128594 0.720574 0.133040
v 0.174411 0.674758 0.133040
v 0.235773 0.658394 0.133040
v 0.297953 0.674758 0.133040
v 0.342952 0.720574 0.133040
v 0.297953 0.674757 0.573210
v 0.235773 0.658394 0.573210
v 0.174411 0.674757 0.573210
v 0.128594 0.720574 0.573210
v 0.112231 0.781936 0.573210
v 0.128594 0.843298 0.573210
v 0.174411 0.889115 0.573210
v 0.235773 0.905478 0.573210
v 0.297953 0.889115 0.573210
v 0.342952 0.843298 0.573210
v 0.359315 0.781936 0.573210
v 0.342952 0.720574 0.573210
v 0.342952 0.843298 0.682844
v 0.359315 0.781936 0.682844
v 0.297953 0.889115 0.682844
v 0.235773 0.905478 0.682844
v 0.174411 0.889115 0.682844
v 0.128594 0.843298 0.682844
v 0.112231 0.781936 0.682844
v 0.128594 0.720574 0.682844
v 0.174411 0.674757 0.682844
v 0.235773 0.658394 0.682844
v 0.297953 0.674757 0.682844
v 0.342952 0.720574 0.682844
vt 1.000000 1.000000
vt 0.836000 1.000000
vt 0.836000 0.000000
vt 1.000000 0.000000
vt 0.164000 0.000000
vt 0.164000 1.000000
vt 0.000000 1.000000
vt 0.000000 0.000000
vt 0.164000 0.000000
vt 0.164000 1.000000
vt 0.000000 1.000000
vt 0.000000 0.000000
vt 0.000000 0.000000
vt 1.000000 0.000000
vt 1.000000 1.000000
vt 0.000000 1.000000
vt 0.164000 0.000000
vt 0.164000 1.000000
vt 0.000000 1.000000
vt 0.000000 0.000000
vt 0.000000 0.000000
vt 1.000000 1.000000
vt 0.000000 1.000000
vt 0.164000 0.000000
vt 0.164000 1.000000
vt 1.000000 0.000000
vt 0.836000 1.000000
vt 0.836000 0.000000
vt 1.000000 0.000000
vt 1.000000 1.000000
vt 0.836000 1.000000
vt 0.836000 0.000000
vt 1.000000 0.000000
vt 1.000000 1.000000
vt 0.836000 1.000000
vt 0.836000 0.000000
vt 0.164000 0.000000
vt 0.836000 0.000000
vt 0.836000 1.000000
vt 0.164000 1.000000
vt 0.244000 0.000000
vt 0.112000 0.000000
vt 0.083000 0.000000
vt 0.167000 0.000000
vt 0.339000 0.000000
vt 0.555000 0.000000
vt 0.756000 0.000000
vt 0.888000 0.000000
vt 0.917000 0.000000
vt 0.833000 0.000000
vt 0.750000 0.000000
vt 0.445000 0.000000
vt 0.833000 1.000000
vt 0.750000 1.000000
vt 0.917000 1.000000
vt -0.083000 0.000000
vt 0.000000 0.000000
vt 0.000000 1.000000
vt -0.083000 1.000000
vt 0.083000 0.000000
vt 0.083000 1.000000
vt 0.167000 0.000000
vt 0.167000 1.000000
vt 0.250000 0.000000
vt 0.250000 1.000000
vt 0.333000 0.000000
vt 0.333000 1.000000
vt 0.417000 0.000000
vt 0.417000 1.000000
vt 0.500000 0.000000
vt 0.500000 1.000000
vt 0.583000 0.000000
vt 0.583000 1.000000
vt 0.667000 0.000000
vt 0.667000 1.000000
vt 0.888000 1.000000
vt 0.756000 1.000000
vt 0.555000 1.000000
vt 0.339000 1.000000
vt 0.167000 1.000000
vt 0.083000 1.000000
vt 0.112000 1.000000
vt 0.244000 1.000000
vt 0.244000 0.000000
vt 0.112000 0.000000
vt 0.083000 0.000000
vt 0.167000 0.000000
vt 0.339000 0.000000
vt 0.555000 0.000000
vt 0.756000 0.000000
vt 0.888000 0.000000
vt 0.917000 0.000000
vt 0.833000 0.000000
vt 0.750000 0.000000
vt 0.445000 0.000000
vt 0.833000 1.000000
vt 0.750000 1.000000
vt 0.917000 1.000000
vt -0.083000 0.000000
vt 0.000000 0.000000
vt 0.000000 1.000000
vt -0.083000 1.000000
vt 0.083000 0.000000
vt 0.083000 1.000000
vt 0.167000 0.000000
vt 0.167000 1.000000
vt 0.250000 0.000000
vt 0.250000 1.000000
vt 0.333000 0.000000
vt 0.333000 1.000000
vt 0.417000 0.000000
vt 0.417000 1.000000
vt 0.500000 0.000000
vt 0.500000 1.000000
vt 0.583000 0.000000
vt 0.583000 1.000000
vt 0.667000 0.000000
vt 0.667000 1.000000
vt 0.888000 1.000000
vt 0.756000 1.000000
vt 0.555000 1.000000
vt 0.339000 1.000000
vt 0.167000 1.000000
vt 0.083000 1.000000
vt 0.112000 1.000000
vt 0.244000 1.000000
vt 0.244000 0.000000
vt 0.112000 0.000000
vt 0.083000 0.000000
vt 0.167000 0.000000
vt 0.339000 0.000000
vt 0.555000 0.000000
vt 0.756000 0.000000
vt 0.888000 0.000000
vt 0.917000 0.000000
vt 0.833000 0.000000
vt 0.750000 0.000000
vt 0.445000 0.000000
vt 0.833000 1.000000
vt 0.750000 1.000000
vt 0.917000 1.000000
vt -0.083000 0.000000
vt 0.000000 0.000000
vt 0.000000 1.000000
vt -0.083000 1.000000
vt 0.083000 0.000000
vt 0.083000 1.000000
vt 0.167000 0.000000
vt 0.167000 1.000000
vt 0.250000 0.000000
vt 0.250000 1.000000
vt 0.333000 0.000000
vt 0.333000 1.000000
vt 0.417000 0.000000
vt 0.417000 1.000000
vt 0.500000 0.000000
vt 0.500000 1.000000
vt 0.583000 0.000000
vt 0.583000 1.000000
vt 0.667000 0.000000
vt 0.667000 1.000000
vt 0.888000 1.000000
vt 0.756000 1.000000
vt 0.555000 1.000000
vt 0.339000 1.000000
vt 0.167000 1.000000
vt 0.083000 1.000000
vt 0.112000 1.000000
vt 0.244000 1.000000
vt 0.244000 0.000000
vt 0.112000 0.000000
vt 0.083000 0.000000
vt 0.167000 0.000000
vt 0.339000 0.000000
vt 0.555000 0.000000
vt 0.756000 0.000000
vt 0.888000 0.000000
vt 0.917000 0.000000
vt 0.833000 0.000000
vt 0.750000 0.000000
vt 0.445000 0.000000
vt 0.833000 1.000000
vt 0.750000 1.000000
vt 0.917000 1.000000
vt -0.083000 0.000000
vt 0.000000 0.000000
vt 0.000000 1.000000
vt -0.083000 1.000000
vt 0.083000 0.000000
vt 0.083000 1.000000
vt 0.167000 0.000000
vt 0.167000 1.000000
vt 0.250000 0.000000
vt 0.250000 1.000000
vt 0.333000 0.000000
vt 0.333000 1.000000
vt 0.417000 0.000000
vt 0.417000 1.000000
vt 0.500000 0.000000
vt 0.500000 1.000000
vt 0.583000 0.000000
vt 0.583000 1.000000
vt 0.667000 0.000000
vt 0.667000 1.000000
vt 0.888000 1.000000
vt 0.756000 1.000000
vt 0.555000 1.000000
vt 0.339000 1.000000
vt 0.167000 1.000000
vt 0.083000 1.000000
vt 0.112000 1.000000
vt 0.244000 1.000000
vn 0.0000 -1.0000 -0.0000
vn 0.0000 1.0000 0.0000
vn 0.0000 -0.0000 1.0000
vn 1.0000 -0.0000 0.0000
vn 0.0000 0.0000 -1.0000
vn -1.0000 0.0000 0.0000
vn -0.7848 0.6198 0.0000
vn -0.7848 0.6197 0.0000
vn 0.0000 0.1949 0.9808
vn 0.7848 0.6198 0.0000
vn 0.7848 0.6197 0.0000
vn 0.0000 0.1949 -0.9808
vn 0.8660 0.5000 0.0000
vn 0.5000 0.8660 0.0000
vn -0.5001 0.8660 -0.0000
vn -0.5000 0.8660 0.0000
vn -0.8660 0.5000 -0.0000
vn -0.8660 -0.5000 0.0000
vn -0.5000 -0.8660 0.0000
vn 0.5000 -0.8660 -0.0000
vn 0.8660 -0.5000 0.0000
vn 0.5001 0.8660 0.0000
vn -0.4998 0.8661 0.0000
vn -0.4999 0.8661 0.0000
vn -0.8661 0.4998 -0.0000
vn -0.8661 0.4999 0.0000
vn -0.8661 -0.4998 0.0000
vn -0.8661 -0.4999 -0.0000
vn -0.4999 -0.8661 0.0000
vn -0.4995 -0.8663 0.0000
vn 0.5001 -0.8660 0.0000
vn -0.4995 0.8663 0.0000
vn -0.8663 0.4995 0.0000
vn -0.4998 -0.8661 -0.0000
usemtl Default_OBJ
s 1
f 1/1/1 2/2/1 3/3/1
f 3/3/1 4/4/1 1/1/1
f 5/5/2 6/6/2 7/7/2
f 7/7/2 8/8/2 5/5/2
f 3/9/3 5/10/3 8/11/3
f 8/11/3 4/12/3 3/9/3
f 9/13/4 10/14/4 11/15/4
f 11/15/4 12/16/4 9/13/4
f 13/17/5 14/18/5 11/19/5
f 11/19/5 10/20/5 13/17/5
f 1/21/6 4/4/6 8/22/6
f 8/22/6 7/7/6 1/21/6
f 10/23/1 9/13/1 15/24/1
f 15/24/1 13/25/1 10/23/1
f 12/26/2 11/15/2 14/27/2
f 14/27/2 16/28/2 12/26/2
f 9/29/3 12/30/3 16/31/3
f 16/31/3 15/32/3 9/29/3
f 1/33/5 7/34/5 6/35/5
f 6/35/5 2/36/5 1/33/5
f 2/2/1 13/25/1 15/24/1
f 15/24/1 3/3/1 2/2/1
f 17/37/2 18/38/2 19/39/2
f 19/39/2 20/40/2 17/37/2
f 3/9/3 15/32/3 16/31/3
f 16/31/3 5/10/3 3/9/3
f 13/17/5 2/36/5 6/35/5
f 6/35/5 14/18/5 13/17/5
f 6/6/7 5/5/8 17/37/7
f 17/37/7 20/40/8 6/6/7
f 5/5/9 16/28/9 18/38/9
f 18/38/9 17/37/9 5/5/9
f 16/28/10 14/27/11 19/39/10
f 19/39/10 18/38/11 16/28/10
f 14/27/12 6/6/12 20/40/12
f 20/40/12 19/39/12 14/27/12
f 21/41/5 22/42/5 23/43/5
f 23/43/5 24/44/5 25/45/5
f 25/45/5 26/46/5 27/47/5
f 23/43/5 25/45/5 27/47/5
f 27/47/5 28/48/5 29/49/5
f 29/49/5 30/50/5 31/51/5
f 27/47/5 29/49/5 31/51/5
f 23/43/5 27/47/5 31/51/5
f 21/41/5 23/43/5 31/51/5
f 32/52/5 21/41/5 31/51/5
f 31/51/4 30/50/13 33/53/13
f 33/53/13 34/54/4 31/51/4
f 30/50/13 29/49/14 35/55/14
f 35/55/14 33/53/13 30/50/13
f 29/56/14 28/57/2 36/58/2
f 36/58/2 35/59/14 29/56/14
f 28/57/2 27/60/15 37/61/16
f 37/61/16 36/58/2 28/57/2
f 27/60/15 26/62/17 38/63/17
f 38/63/17 37/61/16 27/60/15
f 26/62/17 25/64/6 39/65/6
f 39/65/6 38/63/17 26/62/17
f 25/64/6 24/66/18 40/67/18
f 40/67/18 39/65/6 25/64/6
f 24/66/18 23/68/19 41/69/19
f 41/69/19 40/67/18 24/66/18
f 23/68/19 22/70/1 42/71/1
f 42/71/1 41/69/19 23/68/19
f 22/70/1 21/72/20 43/73/20
f 43/73/20 42/71/1 22/70/1
f 21/72/20 32/74/21 44/75/21
f 44/75/21 43/73/20 21/72/20
f 32/74/21 31/51/4 34/54/4
f 34/54/4 44/75/21 32/74/21
f 34/54/3 33/53/3 35/55/3
f 35/55/3 36/76/3 37/77/3
f 37/77/3 38/78/3 39/79/3
f 35/55/3 37/77/3 39/79/3
f 39/79/3 40/80/3 41/81/3
f 41/81/3 42/82/3 43/83/3
f 39/79/3 41/81/3 43/83/3
f 35/55/3 39/79/3 43/83/3
f 34/54/3 35/55/3 43/83/3
f 44/75/3 34/54/3 43/83/3
f 45/84/5 46/85/5 47/86/5
f 47/86/5 48/87/5 49/88/5
f 49/88/5 50/89/5 51/90/5
f 47/86/5 49/88/5 51/90/5
f 51/90/5 52/91/5 53/92/5
f 53/92/5 54/93/5 55/94/5
f 51/90/5 53/92/5 55/94/5
f 47/86/5 51/90/5 55/94/5
f 45/84/5 47/86/5 55/94/5
f 56/95/5 45/84/5 55/94/5
f 55/94/4 54/93/13 57/96/13
f 57/96/13 58/97/4 55/94/4
f 54/93/13 53/92/14 59/98/22
f 59/98/22 57/96/13 54/93/13
f 53/99/14 52/100/2 60/101/2
f 60/101/2 59/102/22 53/99/14
f 52/100/2 51/103/16 61/104/15
f 61/104/15 60/101/2 52/100/2
f 51/103/16 50/105/17 62/106/17
f 62/106/17 61/104/15 51/103/16
f 50/105/17 49/107/6 63/108/6
f 63/108/6 62/106/17 50/105/17
f 49/107/6 48/109/18 64/110/18
f 64/110/18 63/108/6 49/107/6
f 48/109/18 47/111/19 65/112/19
f 65/112/19 64/110/18 48/109/18
f 47/111/19 46/113/1 66/114/1
f 66/114/1 65/112/19 47/111/19
f 46/113/1 45/115/20 67/116/20
f 67/116/20 66/114/1 46/113/1
f 45/115/20 56/117/21 68/118/21
f 68/118/21 67/116/20 45/115/20
f 56/117/21 55/94/4 58/97/4
f 58/97/4 68/118/21 56/117/21
f 58/97/3 57/96/3 59/98/3
f 59/98/3 60/119/3 61/120/3
f 61/120/3 62/121/3 63/122/3
f 59/98/3 61/120/3 63/122/3
f 63/122/3 64/123/3 65/124/3
f 65/124/3 66/125/3 67/126/3
f 63/122/3 65/124/3 67/126/3
f 59/98/3 63/122/3 67/126/3
f 58/97/3 59/98/3 67/126/3
f 68/118/3 58/97/3 67/126/3
f 69/127/5 70/128/5 71/129/5
f 71/129/5 72/130/5 73/131/5
f 73/131/5 74/132/5 75/133/5
f 71/129/5 73/131/5 75/133/5
f 75/133/5 76/134/5 77/135/5
f 77/135/5 78/136/5 79/137/5
f 75/133/5 77/135/5 79/137/5
f 71/129/5 75/133/5 79/137/5
f 69/127/5 71/129/5 79/137/5
f 80/138/5 69/127/5 79/137/5
f 79/137/4 78/136/13 81/139/13
f 81/139/13 82/140/4 79/137/4
f 78/136/13 77/135/22 83/141/22
f 83/141/22 81/139/13 78/136/13
f 77/142/22 76/143/2 84/144/2
f 84/144/2 83/145/22 77/142/22
f 76/143/2 75/146/23 85/147/24
f 85/147/24 84/144/2 76/143/2
f 75/146/23 74/148/25 86/149/26
f 86/149/26 85/147/24 75/146/23
f 74/148/25 73/150/6 87/151/6
f 87/151/6 86/149/26 74/148/25
f 73/150/6 72/152/27 88/153/28
f 88/153/28 87/151/6 73/150/6
f 72/152/27 71/154/29 89/155/30
f 89/155/30 88/153/28 72/152/27
f 71/154/29 70/156/1 90/157/1
f 90/157/1 89/155/30 71/154/29
f 70/156/1 69/158/20 91/159/31
f 91/159/31 90/157/1 70/156/1
f 69/158/20 80/160/21 92/161/21
f 92/161/21 91/159/31 69/158/20
f 80/160/21 79/137/4 82/140/4
f 82/140/4 92/161/21 80/160/21
f 82/140/3 81/139/3 83/141/3
f 83/141/3 84/162/3 85/163/3
f 85/163/3 86/164/3 87/165/3
f 83/141/3 85/163/3 87/165/3
f 87/165/3 88/166/3 89/167/3
f 89/167/3 90/168/3 91/169/3
f 87/165/3 89/167/3 91/169/3
f 83/141/3 87/165/3 91/169/3
f 82/140/3 83/141/3 91/169/3
f 92/161/3 82/140/3 91/169/3
f 93/170/5 94/171/5 95/172/5
f 95/172/5 96/173/5 97/174/5
f 97/174/5 98/175/5 99/176/5
f 95/172/5 97/174/5 99/176/5
f 99/176/5 100/177/5 101/178/5
f 101/178/5 102/179/5 103/180/5
f 99/176/5 101/178/5 103/180/5
f 95/172/5 99/176/5 103/180/5
f 93/170/5 95/172/5 103/180/5
f 104/181/5 93/170/5 103/180/5
f 103/180/4 102/179/13 105/182/13
f 105/182/13 106/183/4 103/180/4
f 102/179/13 101/178/14 107/184/22
f 107/184/22 105/182/13 102/179/13
f 101/185/14 100/186/2 108/187/2
f 108/187/2 107/188/22 101/185/14
f 100/186/2 99/189/32 109/190/23
f 109/190/23 108/187/2 100/186/2
f 99/189/32 98/191/26 110/192/33
f 110/192/33 109/190/23 99/189/32
f 98/191/26 97/193/6 111/194/6
f 111/194/6 110/192/33 98/191/26
f 97/193/6 96/195/28 112/196/27
f 112/196/27 111/194/6 97/193/6
f 96/195/28 95/197/34 113/198/29
f 113/198/29 112/196/27 96/195/28
f 95/197/34 94/199/1 114/200/1
f 114/200/1 113/198/29 95/197/34
f 94/199/1 93/201/31 115/202/31
f 115/202/31 114/200/1 94/199/1
f 93/201/31 104/203/21 116/204/21
f 116/204/21 115/202/31 93/201/31
f 104/203/21 103/180/4 106/183/4
f 106/183/4 116/204/21 104/203/21
f 106/183/3 105/182/3 107/184/3
f 107/184/3 108/205/3 109/206/3
f 109/206/3 110/207/3 111/208/3
f 107/184/3 109/206/3 111/208/3
f 111/208/3 112/209/3 113/210/3
f 113/210/3 114/211/3 115/212/3
f 111/208/3 113/210/3 115/212/3
f 107/184/3 111/208/3 115/212/3
f 106/183/3 107/184/3 115/212/3
f 116/204/3 106/183/3 115/212/3
